<!-- Youth/People icon -->
<svg id="icon-people" xmlns="http://www.w3.org/2000/svg" viewBox="0 0 24 24" fill="currentColor">
  <circle cx="12" cy="8" r="4" fill="#D4A373"/>
  <path d="M 12 14 C 8 14 5 16 5 20 L 19 20 C 19 16 16 14 12 14" fill="#D4A373"/>
  <circle cx="5" cy="7" r="2.5" fill="#D4A373"/>
  <path d="M 5 10 C 3 10 2 11 2 13 L 8 13 C 8 11 7 10 5 10" fill="#D4A373"/>
  <circle cx="19" cy="7" r="2.5" fill="#D4A373"/>
  <path d="M 19 10 C 17 10 16 11 16 13 L 22 13 C 22 11 21 10 19 10" fill="#D4A373"/>
</svg>

<!-- Cultural Preservation icon -->
<svg id="icon-culture" xmlns="http://www.w3.org/2000/svg" viewBox="0 0 24 24" fill="currentColor">
  <path d="M 12 2 L 15 10 L 23 10 L 17 15 L 19 23 L 12 18 L 5 23 L 7 15 L 1 10 L 9 10 Z" fill="#D4A373"/>
</svg>

<!-- Community Building icon -->
<svg id="icon-community" xmlns="http://www.w3.org/2000/svg" viewBox="0 0 24 24" fill="currentColor">
  <path d="M 12 2 C 14.2 2 16 3.8 16 6 C 16 8.2 14.2 10 12 10 C 9.8 10 8 8.2 8 6 C 8 3.8 9.8 2 12 2 Z" fill="#D4A373"/>
  <path d="M 6 12 C 7.7 12 9 13.3 9 15 C 9 16.7 7.7 18 6 18 C 4.3 18 3 16.7 3 15 C 3 13.3 4.3 12 6 12 Z" fill="#D4A373"/>
  <path d="M 18 12 C 19.7 12 21 13.3 21 15 C 21 16.7 19.7 18 18 18 C 16.3 18 15 16.7 15 15 C 15 13.3 16.3 12 18 12 Z" fill="#D4A373"/>
  <path d="M 3 20 C 3 18 4 16 6 16 L 18 16 C 20 16 21 18 21 20 L 3 20 Z" fill="#D4A373" opacity="0.7"/>
</svg>

<!-- Phone icon -->
<svg id="icon-phone" xmlns="http://www.w3.org/2000/svg" viewBox="0 0 24 24" fill="currentColor">
  <path d="M 17 2 L 7 2 C 5.9 2 5 2.9 5 4 L 5 20 C 5 21.1 5.9 22 7 22 L 17 22 C 18.1 22 19 21.1 19 20 L 19 4 C 19 2.9 18.1 2 17 2 Z M 12 20 C 10.9 20 10 19.1 10 18 C 10 16.9 10.9 16 12 16 C 13.1 16 14 16.9 14 18 C 14 19.1 13.1 20 12 20 Z M 17 16 L 7 16 L 7 4 L 17 4 L 17 16 Z" fill="#8B5E3C"/>
</svg>

<!-- Email icon -->
<svg id="icon-email" xmlns="http://www.w3.org/2000/svg" viewBox="0 0 24 24" fill="currentColor">
  <path d="M 20 4 L 4 4 C 2.9 4 2 4.9 2 6 L 2 18 C 2 19.1 2.9 20 4 20 L 20 20 C 21.1 20 22 19.1 22 18 L 22 6 C 22 4.9 21.1 4 20 4 Z M 20 6 L 12 12 L 4 6 L 20 6 Z M 20 18 L 4 18 L 4 8 L 12 14 L 20 8 L 20 18 Z" fill="#8B5E3C"/>
</svg>

<!-- Location icon -->
<svg id="icon-location" xmlns="http://www.w3.org/2000/svg" viewBox="0 0 24 24" fill="currentColor">
  <path d="M 12 2 C 8.1 2 5 5.1 5 9 C 5 14 12 22 12 22 S 19 14 19 9 C 19 5.1 15.9 2 12 2 Z M 12 12 C 10.3 12 9 10.7 9 9 C 9 7.3 10.3 6 12 6 C 13.7 6 15 7.3 15 9 C 15 10.7 13.7 12 12 12 Z" fill="#8B5E3C"/>
</svg>

<!-- Organization/Building icon -->
<svg id="icon-org" xmlns="http://www.w3.org/2000/svg" viewBox="0 0 24 24" fill="currentColor">
  <path d="M 3 2 L 3 22 L 21 22 L 21 2 L 3 2 Z M 7 4 L 9 4 L 9 6 L 7 6 L 7 4 Z M 7 8 L 9 8 L 9 10 L 7 10 L 7 8 Z M 7 12 L 9 12 L 9 14 L 7 14 L 7 12 Z M 12 4 L 14 4 L 14 6 L 12 6 L 12 4 Z M 12 8 L 14 8 L 14 10 L 12 10 L 12 8 Z M 12 12 L 14 12 L 14 14 L 12 14 L 12 12 Z M 17 4 L 19 4 L 19 6 L 17 6 L 17 4 Z M 17 8 L 19 8 L 19 10 L 17 10 L 17 8 Z M 17 12 L 19 12 L 19 14 L 17 14 L 17 12 Z" fill="#8B5E3C"/>
</svg>
